<?xml version="1.0" encoding="UTF-8" standalone="no"?>
<!-- Created with Inkscape (http://www.inkscape.org/) -->

<svg
   xmlns:dc="http://purl.org/dc/elements/1.1/"
   xmlns:cc="http://creativecommons.org/ns#"
   xmlns:rdf="http://www.w3.org/1999/02/22-rdf-syntax-ns#"
   xmlns:svg="http://www.w3.org/2000/svg"
   xmlns="http://www.w3.org/2000/svg"
   version="1.1"
   width="1000"
   height="1000"
   id="svg3053">
  <defs
     id="defs5498" />
  <metadata
     id="metadata5594">
    <rdf:RDF>
      <cc:Work
         rdf:about="">
        <dc:format>image/svg+xml</dc:format>
        <dc:type
           rdf:resource="http://purl.org/dc/dcmitype/StillImage" />
        <dc:title></dc:title>
      </cc:Work>
    </rdf:RDF>
  </metadata>
  <g
     id="layer1">
    <path
       d="M 217.5238,799.43387 C 168.72481,788.73569 107.22318,767.17099 69.053348,747.3748 l -33.407963,-17.32656 45.752014,-3.5446 c 25.163611,-1.94952 57.753101,-6.36668 72.421131,-9.81585 50.0548,-11.77049 118.75447,-42.26948 144.3553,-64.08609 11.32971,-9.65501 3.90594,-16.78523 -17.6206,-16.92388 -21.65852,-0.13942 -78.06064,-29.69548 -101.61227,-53.24711 -18.35291,-18.35291 -43.71766,-57.64653 -43.71766,-67.72488 0,-1.59815 7.87204,-3.04531 17.49342,-3.21594 9.62137,-0.17063 27.18207,-2.07864 39.02377,-4.24013 l 21.53036,-3.92989 -30.77803,-14.22246 C 121.60503,460.96121 65.249629,388.66839 65.249629,338.69751 c 0,-22.72217 -0.05654,-22.68881 26.912951,-15.79532 10.36149,2.64839 26.91839,6.24902 36.79312,8.00138 l 17.95406,3.18617 -25.50502,-28.21613 C 89.664084,270.75894 72.416057,234.04569 65.83822,187.59748 61.533271,157.19909 62.42544,146.0889 71.65986,115.09955 77.658066,94.970652 83.447742,77.558511 84.525811,76.405878 c 1.078084,-1.152676 19.819939,15.423923 41.648499,36.836892 21.82859,21.41291 54.81263,49.45792 73.29778,62.32221 70.82321,49.28746 170.00873,87.58459 254.66967,98.33196 l 36.33248,4.61233 0,-47.67709 c 0,-42.47133 1.79595,-51.23489 16.44866,-80.26164 20.62274,-40.85348 52.08748,-72.416982 94.64789,-94.944951 29.91703,-15.835632 37.4554,-17.493418 79.54666,-17.493418 40.75337,0 50.36952,1.954479 77.83768,15.820344 17.237,8.701225 38.9459,22.220297 48.24196,30.04245 19.75836,16.625585 29.0698,15.705472 91.69027,-9.05987 21.83809,-8.636639 40.67432,-14.734245 41.85826,-13.550292 4.21199,4.211978 -36.52417,60.465967 -56.18719,77.590837 -23.45546,20.42785 -16.95834,22.40988 31.1404,9.49963 33.87487,-9.09238 43.06081,-9.88147 43.06081,-3.69887 0,4.53176 -62.97749,68.71324 -74.27622,75.69628 -3.83066,2.36748 -8.51159,29.74559 -11.66847,68.24721 C 863.9376,396.98741 838.52166,474.3462 784.70006,556.91578 697.98272,689.95192 565.10374,777.46132 415.58782,800 352.39073,809.52659 262.3878,809.26936 217.5238,799.43387 z"
       id="path3093"
       style="fill:#000000" />
  </g>
</svg>
